HIERARCHY
ROOT Hips
{
	OFFSET 0.000000 0.000000 0.000000
	CHANNELS 6 Xposition Yposition Zposition Xrotation Yrotation Zrotation
	JOINT Chest
	{
		OFFSET 0.000000 0.009282 11.569106
		CHANNELS 6 Xposition Yposition Zposition Xrotation Yrotation Zrotation
		JOINT Chest2
		{
			OFFSET 0.000000 -0.016863 9.269641
			CHANNELS 6 Xposition Yposition Zposition Xrotation Yrotation Zrotation
			JOINT Chest3
			{
				OFFSET 0.000000 0.000000 8.374491
				CHANNELS 6 Xposition Yposition Zposition Xrotation Yrotation Zrotation
				JOINT Chest4
				{
					OFFSET 0.000000 0.000000 8.374493
					CHANNELS 6 Xposition Yposition Zposition Xrotation Yrotation Zrotation
					JOINT Neck
					{
						OFFSET 0.000000 -0.000001 12.152554
						CHANNELS 6 Xposition Yposition Zposition Xrotation Yrotation Zrotation
						JOINT Head
						{
							OFFSET 0.000000 -0.040100 7.802319
							CHANNELS 6 Xposition Yposition Zposition Xrotation Yrotation Zrotation
							End Site
							{
								OFFSET 0.000000 -0.020946 14.853096
							}
						}
					}
					JOINT RightCollar
					{
						OFFSET -2.894404 0.000000 6.791374
						CHANNELS 6 Xposition Yposition Zposition Xrotation Yrotation Zrotation
						JOINT RightShoulder
						{
							OFFSET -13.574684 0.000000 0.000000
							CHANNELS 6 Xposition Yposition Zposition Xrotation Yrotation Zrotation
							JOINT RightElbow
							{
								OFFSET -23.923903 0.000000 0.000000
								CHANNELS 6 Xposition Yposition Zposition Xrotation Yrotation Zrotation
								JOINT RightWrist
								{
									OFFSET -19.846718 -0.012765 0.000000
									CHANNELS 6 Xposition Yposition Zposition Xrotation Yrotation Zrotation
									End Site
									{
										OFFSET -14.973145 0.000000 0.000000
									}
								}
							}
						}
					}
					JOINT LeftCollar
					{
						OFFSET 2.894404 0.000000 6.791374
						CHANNELS 6 Xposition Yposition Zposition Xrotation Yrotation Zrotation
						JOINT LeftShoulder
						{
							OFFSET 13.574684 0.000000 0.000000
							CHANNELS 6 Xposition Yposition Zposition Xrotation Yrotation Zrotation
							JOINT LeftElbow
							{
								OFFSET 23.923903 0.000000 0.000000
								CHANNELS 6 Xposition Yposition Zposition Xrotation Yrotation Zrotation
								JOINT LeftWrist
								{
									OFFSET 19.846718 -0.012765 0.000000
									CHANNELS 6 Xposition Yposition Zposition Xrotation Yrotation Zrotation
									End Site
									{
										OFFSET 14.973145 0.000000 0.000000
									}
								}
							}
						}
					}
				}
			}
		}
	}
	JOINT RightHip
	{
		OFFSET -9.469263 -0.004642 0.045487
		CHANNELS 6 Xposition Yposition Zposition Xrotation Yrotation Zrotation
		JOINT RightKnee
		{
			OFFSET 0.000000 -0.002666 -40.478676
			CHANNELS 6 Xposition Yposition Zposition Xrotation Yrotation Zrotation
			JOINT RightAnkle
			{
				OFFSET 0.000000 -0.049110 -35.224068
				CHANNELS 6 Xposition Yposition Zposition Xrotation Yrotation Zrotation
				JOINT RightToe
				{
					OFFSET 0.000000 -12.539530 -6.151390
					CHANNELS 6 Xposition Yposition Zposition Xrotation Yrotation Zrotation
					End Site
					{
						OFFSET 0.000000 -5.044995 -1.291870
					}
				}
			}
		}
	}
	JOINT LeftHip
	{
		OFFSET 9.469263 -0.004642 0.045487
		CHANNELS 6 Xposition Yposition Zposition Xrotation Yrotation Zrotation
		JOINT LeftKnee
		{
			OFFSET 0.000000 -0.002666 -40.478676
			CHANNELS 6 Xposition Yposition Zposition Xrotation Yrotation Zrotation
			JOINT LeftAnkle
			{
				OFFSET 0.000000 -0.049110 -35.224068
				CHANNELS 6 Xposition Yposition Zposition Xrotation Yrotation Zrotation
				JOINT LeftToe
				{
					OFFSET 0.000000 -12.539530 -6.151390
					CHANNELS 6 Xposition Yposition Zposition Xrotation Yrotation Zrotation
					End Site
					{
						OFFSET 0.000000 -5.044995 -1.291870
					}
				}
			}
		}
	}
}
MOTION
Frames: 5
Frame Time: 0.016667
-12.307414 -8.501779 83.125771 1.768812 2.836720 -115.134067 0.000001 0.009283 11.569103 3.174145 0.663732 0.483758 -0.000002 -0.016862 9.269641 1.409454 0.287101 0.199619 0.000001 0.000000 8.374481 1.409454 0.287101 0.199625 0.000000 0.000000 8.374497 1.057183 0.214867 0.150375 -0.000001 -0.000003 12.152547 17.284470 -0.899301 -0.368173 0.000001 -0.040094 7.802317 -4.093275 -1.513361 -0.981048 -2.894405 -0.000000 6.791377 -7.948802 -9.014800 -1.882230 -13.574685 0.000002 -0.000007 22.856016 -45.577565 0.701702 -23.923912 -0.000010 0.000001 61.627711 13.888778 60.808368 -19.846712 -0.012766 0.000005 -51.366404 23.988374 89.778677 2.894403 -0.000001 6.791373 -7.569362 6.272407 0.200255 13.574683 -0.000000 -0.000004 14.668986 44.673399 3.103293 23.923906 -0.000003 -0.000001 72.560440 15.386212 -54.348133 19.846731 -0.012771 0.000006 -15.379803 -19.252258 -66.602151 -9.469263 -0.004642 0.045476 2.582509 -0.159281 -10.929919 0.000467 -0.002715 -40.478470 4.132673 -2.022543 -10.053263 0.000232 -0.049128 -35.224216 -2.893823 2.493153 -5.010544 -0.000000 -12.539532 -6.151384 0.019606 -0.027069 0.045265 9.469263 -0.004641 0.045476 4.925366 3.933856 10.997370 -0.000603 -0.002734 -40.478603 1.127087 1.243829 13.031192 -0.000636 -0.049200 -35.224304 -3.833537 -5.323291 13.833096 0.000000 -12.539532 -6.151374 0.060150 -0.008940 -0.013569 
-12.303947 -8.512637 83.126129 1.777879 2.840895 -115.152563 -0.000001 0.009282 11.569119 3.180595 0.663754 0.486316 0.000000 -0.016864 9.269637 1.412513 0.287084 0.201255 0.000001 -0.000001 8.374498 1.412514 0.287084 0.201256 -0.000000 -0.000001 8.374501 1.059477 0.214849 0.151608 -0.000000 -0.000001 12.152560 17.299153 -0.909719 -0.371235 0.000000 -0.040098 7.802301 -4.066152 -1.531406 -0.990048 -2.894404 0.000001 6.791383 -7.978542 -9.019180 -1.895940 -13.574689 0.000002 0.000005 22.848448 -45.586984 0.670668 -23.923908 -0.000001 -0.000001 61.617739 13.904813 60.795691 -19.846735 -0.012765 0.000008 -51.376324 23.976559 89.779469 2.894403 -0.000001 6.791375 -7.582301 6.277206 0.208474 13.574681 0.000001 0.000004 14.688788 44.660384 3.071472 23.923893 -0.000004 0.000016 72.549019 15.400069 -54.361032 19.846720 -0.012763 0.000003 -15.377795 -19.247461 -66.601817 -9.469263 -0.004642 0.045500 2.565363 -0.158219 -10.899693 0.000465 -0.002715 -40.478466 4.165367 -2.019574 -10.012500 0.000235 -0.049128 -35.224205 -2.888072 2.490533 -5.068567 -0.000004 -12.539534 -6.151375 0.013409 -0.028026 0.044376 9.469263 -0.004641 0.045500 4.929048 3.939491 11.015851 -0.000604 -0.002736 -40.478596 1.123809 1.242837 13.012843 -0.000641 -0.049200 -35.224316 -3.827580 -5.331720 13.964493 0.000001 -12.539534 -6.151379 0.059775 -0.007537 -0.012721 
-12.297929 -8.523817 83.126328 1.786029 2.845422 -115.174885 -0.000001 0.009282 11.569114 3.187673 0.667502 0.489386 0.000001 -0.016864 9.269646 1.416046 0.289093 0.202666 -0.000001 0.000000 8.374484 1.416046 0.289093 0.202671 0.000000 0.000001 8.374497 1.062128 0.216351 0.152674 -0.000001 -0.000002 12.152548 17.310583 -0.924634 -0.374132 0.000001 -0.040105 7.802310 -4.045139 -1.557691 -1.000332 -2.894404 0.000001 6.791363 -8.025725 -9.032294 -1.908489 -13.574681 0.000001 -0.000007 22.849281 -45.581954 0.636361 -23.923893 -0.000000 0.000004 61.615055 13.924720 60.803198 -19.846716 -0.012770 0.000003 -51.380901 23.980611 89.762749 2.894404 0.000001 6.791364 -7.610269 6.273213 0.214125 13.574683 0.000000 0.000004 14.722912 44.658618 3.051956 23.923903 -0.000004 -0.000005 72.529868 15.401962 -54.365755 19.846724 -0.012764 -0.000001 -15.360628 -19.245240 -66.599440 -9.469264 -0.004642 0.045492 2.552404 -0.160460 -10.855956 0.000465 -0.002714 -40.478470 4.182795 -2.014800 -9.999271 0.000236 -0.049127 -35.224209 -2.876228 2.490306 -5.111901 -0.000004 -12.539532 -6.151376 0.010633 -0.029047 0.044298 9.469261 -0.004643 0.045491 4.925455 3.937817 11.025460 -0.000602 -0.002735 -40.478611 1.135969 1.255530 13.021932 -0.000642 -0.049201 -35.224297 -3.837367 -5.348411 14.009906 0.000000 -12.539532 -6.151383 0.064010 -0.004052 -0.012933 
-12.290210 -8.534086 83.126198 1.793866 2.852379 -115.196454 0.000002 0.009283 11.569102 3.195385 0.671187 0.492373 -0.000000 -0.016863 9.269625 1.419260 0.290730 0.203959 0.000001 0.000000 8.374488 1.419260 0.290730 0.203956 -0.000001 -0.000000 8.374504 1.064540 0.217576 0.153646 0.000000 -0.000002 12.152554 17.321160 -0.937793 -0.376415 -0.000000 -0.040100 7.802309 -4.025688 -1.580981 -1.008895 -2.894403 -0.000000 6.791370 -8.069593 -9.043397 -1.931003 -13.574682 0.000000 0.000004 22.856962 -45.564011 0.620974 -23.923908 -0.000011 -0.000007 61.615574 13.941021 60.812275 -19.846724 -0.012765 0.000005 -51.376253 23.984723 89.759307 2.894405 -0.000001 6.791369 -7.630567 6.270829 0.214324 13.574687 0.000001 0.000005 14.738753 44.656272 3.039805 23.923908 -0.000002 -0.000007 72.547565 15.392139 -54.367022 19.846727 -0.012770 0.000003 -15.393141 -19.254013 -66.618407 -9.469262 -0.004641 0.045478 2.536690 -0.151892 -10.819192 0.000464 -0.002715 -40.478462 4.212590 -2.012268 -9.984667 0.000233 -0.049126 -35.224213 -2.873963 2.485576 -5.056567 -0.000002 -12.539533 -6.151382 0.011722 -0.031197 0.046293 9.469265 -0.004640 0.045479 4.923903 3.931774 11.017896 -0.000602 -0.002736 -40.478603 1.149605 1.266621 13.028170 -0.000643 -0.049203 -35.224308 -3.846418 -5.360445 14.000231 -0.000001 -12.539531 -6.151379 0.068889 -0.000641 -0.014502 
-12.283475 -8.543663 83.126183 1.803791 2.861586 -115.221193 0.000000 0.009281 11.569112 3.206458 0.674242 0.494198 -0.000001 -0.016862 9.269656 1.424082 0.292560 0.204293 -0.000001 0.000000 8.374491 1.424082 0.292560 0.204292 0.000000 0.000001 8.374489 1.068157 0.218945 0.153901 -0.000001 -0.000001 12.152560 17.326721 -0.950656 -0.377504 0.000001 -0.040103 7.802319 -4.015519 -1.604100 -1.015237 -2.894405 0.000001 6.791372 -8.117547 -9.054549 -1.951409 -13.574684 0.000001 -0.000005 22.854163 -45.547793 0.594562 -23.923904 -0.000005 0.000010 61.616188 13.957402 60.821585 -19.846703 -0.012764 0.000003 -51.358446 23.982449 89.758139 2.894402 0.000001 6.791377 -7.649440 6.265311 0.212839 13.574685 0.000002 0.000003 14.761921 44.659919 3.031246 23.923893 0.000003 -0.000021 72.569394 15.363957 -54.369088 19.846718 -0.012772 -0.000002 -15.459539 -19.269475 -66.653289 -9.469262 -0.004643 0.045500 2.527846 -0.157967 -10.780293 0.000465 -0.002715 -40.478458 4.230815 -2.011256 -10.013707 0.000234 -0.049129 -35.224209 -2.867367 2.490546 -5.056085 -0.000003 -12.539533 -6.151378 0.010324 -0.030945 0.044462 9.469262 -0.004643 0.045497 4.920814 3.939962 11.015202 -0.000605 -0.002736 -40.478600 1.162999 1.271780 13.038416 -0.000649 -0.049201 -35.224308 -3.846443 -5.373018 14.105841 -0.000000 -12.539534 -6.151390 0.063985 -0.002539 -0.012368 
